<svg xmlns="http://www.w3.org/2000/svg" xmlns:xlink="http://www.w3.org/1999/xlink" width="500" zoomAndPan="magnify" viewBox="0 0 375 374.999991" height="500" preserveAspectRatio="xMidYMid meet" version="1.0"><defs><g/><clipPath id="9c5bae3b8e"><path d="M 161 150 L 239.476562 150 L 239.476562 218.960938 L 161 218.960938 Z M 161 150 " clip-rule="nonzero"/></clipPath></defs><g fill="#000000" fill-opacity="1"><g transform="translate(151.194453, 242.510442)"><g><path d="M -2.3125 -1.808594 L -5.714844 2.550781 L -8.3125 0.519531 C -10.304688 -1.03125 -12.464844 -0.914062 -13.945312 0.980469 C -15.5 2.96875 -14.949219 4.945312 -12.972656 6.488281 L -9.132812 9.488281 L -1.070312 -0.835938 Z M -9.5 7.394531 L -11.933594 5.492188 C -13.328125 4.402344 -13.613281 3.09375 -12.683594 1.902344 C -11.742188 0.695312 -10.4375 0.648438 -9.019531 1.757812 L -6.582031 3.660156 Z M -9.5 7.394531 "/></g></g></g><g fill="#000000" fill-opacity="1"><g transform="translate(140.395352, 233.653187)"><g><path d="M -6.324219 -7.511719 L -7.414062 -6.59375 L -2.980469 -1.328125 L -6.382812 1.535156 L -10.296875 -3.113281 L -11.371094 -2.207031 L -7.460938 2.441406 L -10.820312 5.269531 L -15.253906 0.00390625 L -16.34375 0.921875 L -10.894531 7.398438 L -0.875 -1.039062 Z M -6.324219 -7.511719 "/></g></g></g><g fill="#000000" fill-opacity="1"><g transform="translate(131.890296, 223.093507)"><g><path d="M -2.953125 -5.507812 L -13.242188 0.00390625 L -15.339844 -3.914062 L -16.597656 -3.242188 L -11.660156 5.976562 L -10.402344 5.300781 L -12.496094 1.398438 L -2.207031 -4.117188 Z M -2.953125 -5.507812 "/></g></g></g><g fill="#000000" fill-opacity="1"><g transform="translate(125.68824, 210.413971)"><g/></g></g><g fill="#000000" fill-opacity="1"><g transform="translate(123.11712, 202.855686)"><g><path d="M -0.976562 -6.414062 C -1.140625 -7.503906 -1.597656 -8.925781 -2.640625 -9.722656 C -3.285156 -10.199219 -4.144531 -10.464844 -5.296875 -10.292969 C -7.113281 -10.015625 -8.144531 -8.816406 -8.003906 -6.960938 C -8.347656 -8.316406 -9.714844 -8.960938 -11.257812 -8.726562 C -12.191406 -8.582031 -12.949219 -8.191406 -13.417969 -7.511719 C -13.929688 -6.773438 -14.117188 -5.722656 -13.894531 -4.246094 L -13.152344 0.625 L -0.203125 -1.339844 Z M -11.980469 -1.148438 L -12.433594 -4.121094 C -12.574219 -5.054688 -12.507812 -5.863281 -12.105469 -6.425781 C -11.835938 -6.816406 -11.410156 -7.089844 -10.761719 -7.1875 C -9.421875 -7.390625 -8.507812 -6.625 -8.277344 -5.097656 L -7.773438 -1.789062 Z M -6.382812 -2 L -6.941406 -5.683594 C -7.050781 -6.394531 -7.351562 -8.382812 -5.160156 -8.714844 C -4.363281 -8.835938 -3.796875 -8.660156 -3.402344 -8.339844 C -2.613281 -7.710938 -2.433594 -6.542969 -2.359375 -6.03125 L -1.851562 -2.6875 Z M -6.382812 -2 "/></g></g></g><g fill="#000000" fill-opacity="1"><g transform="translate(121.122842, 188.293236)"><g><path d="M 0.773438 -6.894531 C 1.132812 -11.035156 -1.847656 -13.257812 -5.402344 -13.566406 C -8.960938 -13.875 -12.261719 -12.199219 -12.621094 -8.058594 C -12.976562 -3.953125 -10.015625 -1.730469 -6.460938 -1.421875 C -2.902344 -1.113281 0.414062 -2.789062 0.773438 -6.894531 Z M -0.648438 -7.019531 C -0.898438 -4.128906 -3.261719 -2.730469 -6.320312 -2.996094 C -9.367188 -3.261719 -11.453125 -5.046875 -11.199219 -7.933594 C -10.945312 -10.878906 -8.585938 -12.257812 -5.539062 -11.992188 C -2.480469 -11.726562 -0.390625 -9.960938 -0.648438 -7.019531 Z M -0.648438 -7.019531 "/></g></g></g><g fill="#000000" fill-opacity="1"><g transform="translate(122.917027, 171.698188)"><g><path d="M 2.464844 -6.484375 C 3.847656 -10.402344 1.515625 -13.296875 -1.851562 -14.484375 C -5.21875 -15.671875 -8.832031 -14.871094 -10.210938 -10.949219 C -11.582031 -7.066406 -9.269531 -4.175781 -5.898438 -2.988281 C -2.53125 -1.800781 1.097656 -2.597656 2.464844 -6.484375 Z M 1.121094 -6.957031 C 0.160156 -4.222656 -2.476562 -3.457031 -5.375 -4.476562 C -8.257812 -5.492188 -9.832031 -7.742188 -8.867188 -10.476562 C -7.886719 -13.261719 -5.257812 -14.011719 -2.375 -12.996094 C 0.523438 -11.972656 2.101562 -9.742188 1.121094 -6.957031 Z M 1.121094 -6.957031 "/></g></g></g><g fill="#000000" fill-opacity="1"><g transform="translate(128.967539, 156.050049)"><g><path d="M 1.582031 -2.472656 L -3.78125 -5.90625 L 4.644531 -7.257812 L 5.773438 -9.023438 L -3.269531 -7.535156 L -5.425781 -15.824219 L -6.519531 -14.117188 L -4.390625 -6.292969 L -9.453125 -9.53125 L -10.300781 -8.203125 L 0.730469 -1.140625 Z M 1.582031 -2.472656 "/></g></g></g><g fill="#000000" fill-opacity="1"><g transform="translate(136.95847, 144.514604)"><g/></g></g><g fill="#000000" fill-opacity="1"><g transform="translate(142.540113, 138.584103)"><g><path d="M 1.28125 -4.015625 C 2.21875 -4.792969 2.359375 -6.183594 1.578125 -7.121094 C 0.800781 -8.058594 -0.59375 -8.171875 -1.527344 -7.394531 C -2.453125 -6.625 -2.59375 -5.234375 -1.8125 -4.296875 C -1.03125 -3.363281 0.359375 -3.246094 1.28125 -4.015625 Z M 1.28125 -4.015625 "/></g></g></g><g fill="#000000" fill-opacity="1"><g transform="translate(150.774233, 132.140995)"><g/></g></g><g fill="#000000" fill-opacity="1"><g transform="translate(157.601556, 127.936543)"><g><path d="M 2.71875 -1.105469 L 0.640625 -6.226562 L 3.695312 -7.464844 C 6.035156 -8.414062 7.007812 -10.347656 6.105469 -12.574219 C 5.15625 -14.914062 3.171875 -15.421875 0.847656 -14.480469 L -3.667969 -12.648438 L 1.257812 -0.511719 Z M -1.667969 -11.921875 L 1.195312 -13.082031 C 2.832031 -13.746094 4.109375 -13.339844 4.675781 -11.941406 C 5.253906 -10.523438 4.644531 -9.371094 2.976562 -8.691406 L 0.113281 -7.53125 Z M -1.667969 -11.921875 "/></g></g></g><g fill="#000000" fill-opacity="1"><g transform="translate(170.666212, 122.994805)"><g><path d="M 9.664062 -1.734375 L 9.414062 -3.136719 L 2.636719 -1.921875 L 1.851562 -6.296875 L 7.835938 -7.371094 L 7.585938 -8.753906 L 1.605469 -7.683594 L 0.828125 -12.007812 L 7.605469 -13.222656 L 7.355469 -14.625 L -0.976562 -13.132812 L 1.335938 -0.238281 Z M 9.664062 -1.734375 "/></g></g></g><g fill="#000000" fill-opacity="1"><g transform="translate(184.06336, 120.890618)"><g><path d="M 6.246094 0.1875 L 6.597656 -11.480469 L 11.042969 -11.34375 L 11.085938 -12.769531 L 0.636719 -13.085938 L 0.59375 -11.660156 L 5.019531 -11.527344 L 4.667969 0.140625 Z M 6.246094 0.1875 "/></g></g></g><g fill="#000000" fill-opacity="1"><g transform="translate(198.142991, 121.839265)"><g/></g></g><g fill="#000000" fill-opacity="1"><g transform="translate(205.984005, 123.381562)"><g><path d="M 6.046875 2.355469 C 7.070312 2.753906 8.535156 3.066406 9.742188 2.5625 C 10.476562 2.238281 11.136719 1.628906 11.5625 0.542969 C 12.226562 -1.167969 11.703125 -2.664062 10.027344 -3.464844 C 11.371094 -3.085938 12.609375 -3.949219 13.179688 -5.40625 C 13.519531 -6.285156 13.558594 -7.136719 13.203125 -7.882812 C 12.820312 -8.695312 12 -9.382812 10.609375 -9.925781 L 6.019531 -11.714844 L 1.265625 0.492188 Z M 6.972656 -9.8125 L 9.773438 -8.722656 C 10.652344 -8.378906 11.320312 -7.917969 11.609375 -7.289062 C 11.808594 -6.859375 11.832031 -6.351562 11.597656 -5.746094 C 11.105469 -4.480469 9.988281 -4.070312 8.546875 -4.628906 L 5.425781 -5.84375 Z M 4.917969 -4.535156 L 8.386719 -3.179688 C 9.058594 -2.917969 10.929688 -2.191406 10.128906 -0.125 C 9.835938 0.625 9.402344 1.027344 8.925781 1.210938 C 7.988281 1.582031 6.882812 1.152344 6.402344 0.964844 L 3.253906 -0.261719 Z M 4.917969 -4.535156 "/></g></g></g><g fill="#000000" fill-opacity="1"><g transform="translate(219.598879, 128.916576)"><g><path d="M 5.589844 4.109375 C 9 6.484375 12.410156 5.011719 14.453125 2.082031 C 16.496094 -0.84375 16.6875 -4.542969 13.28125 -6.917969 C 9.898438 -9.273438 6.496094 -7.816406 4.457031 -4.886719 C 2.414062 -1.960938 2.210938 1.75 5.589844 4.109375 Z M 6.40625 2.9375 C 4.027344 1.28125 3.992188 -1.464844 5.75 -3.984375 C 7.5 -6.492188 10.085938 -7.410156 12.464844 -5.75 C 14.886719 -4.0625 14.90625 -1.328125 13.15625 1.179688 C 11.398438 3.699219 8.828125 4.628906 6.40625 2.9375 Z M 6.40625 2.9375 "/></g></g></g><g fill="#000000" fill-opacity="1"><g transform="translate(233.087248, 138.749119)"><g><path d="M 4.390625 5.371094 C 7.097656 8.523438 10.769531 7.949219 13.476562 5.621094 C 16.1875 3.292969 17.292969 -0.238281 14.585938 -3.390625 C 11.898438 -6.515625 8.242188 -5.949219 5.53125 -3.625 C 2.824219 -1.296875 1.703125 2.246094 4.390625 5.371094 Z M 5.472656 4.445312 C 3.578125 2.242188 4.230469 -0.421875 6.5625 -2.425781 C 8.878906 -4.417969 11.613281 -4.660156 13.503906 -2.460938 C 15.429688 -0.222656 14.765625 2.429688 12.449219 4.421875 C 10.117188 6.425781 7.394531 6.683594 5.472656 4.445312 Z M 5.472656 4.445312 "/></g></g></g><g fill="#000000" fill-opacity="1"><g transform="translate(243.632444, 151.798445)"><g><path d="M 1.355469 2.605469 L 7.003906 -0.332031 L 3.976562 7.648438 L 4.941406 9.503906 L 8.160156 0.921875 L 16.421875 3.1875 L 15.488281 1.390625 L 7.644531 -0.664062 L 12.976562 -3.4375 L 12.246094 -4.839844 L 0.625 1.203125 Z M 1.355469 2.605469 "/></g></g></g><g fill="#000000" fill-opacity="1"><g transform="translate(249.637891, 164.477523)"><g/></g></g><g fill="#000000" fill-opacity="1"><g transform="translate(251.99752, 172.273669)"><g><path d="M 2.839844 3.113281 C 3.046875 4.316406 4.183594 5.128906 5.382812 4.921875 C 6.585938 4.710938 7.378906 3.5625 7.171875 2.363281 C 6.964844 1.179688 5.832031 0.363281 4.628906 0.574219 C 3.429688 0.78125 2.636719 1.929688 2.839844 3.113281 Z M 2.839844 3.113281 "/></g></g></g><g fill="#000000" fill-opacity="1"><g transform="translate(253.471138, 182.623787)"><g/></g></g><g fill="#000000" fill-opacity="1"><g transform="translate(253.709413, 190.638292)"><g><path d="M -0.398438 2.910156 L 5.078125 3.660156 L 4.628906 6.925781 C 4.285156 9.425781 5.472656 11.238281 7.855469 11.566406 C 10.355469 11.910156 11.785156 10.441406 12.128906 7.957031 L 12.792969 3.128906 L -0.183594 1.34375 Z M 11.164062 4.5 L 10.742188 7.558594 C 10.503906 9.3125 9.511719 10.214844 8.015625 10.011719 C 6.5 9.800781 5.804688 8.699219 6.050781 6.914062 L 6.472656 3.851562 Z M 11.164062 4.5 "/></g></g></g><g fill="#000000" fill-opacity="1"><g transform="translate(251.477327, 204.426743)"><g><path d="M -3.320312 9.242188 L -1.976562 9.722656 L 0.347656 3.246094 L 4.535156 4.746094 L 2.480469 10.46875 L 3.804688 10.941406 L 5.859375 5.222656 L 9.996094 6.707031 L 7.667969 13.1875 L 9.007812 13.667969 L 11.871094 5.703125 L -0.457031 1.277344 Z M -3.320312 9.242188 "/></g></g></g><g fill="#000000" fill-opacity="1"><g transform="translate(246.621257, 217.088128)"><g><path d="M -3.28125 5.320312 L 6.65625 11.445312 L 4.324219 15.230469 L 5.535156 15.976562 L 11.023438 7.078125 L 9.8125 6.332031 L 7.488281 10.101562 L -2.449219 3.976562 Z M -3.28125 5.320312 "/></g></g></g><g fill="#000000" fill-opacity="1"><g transform="translate(238.772736, 228.817745)"><g/></g></g><g fill="#000000" fill-opacity="1"><g transform="translate(233.532605, 234.845153)"><g><path d="M -5.058594 4.066406 C -5.914062 4.753906 -6.914062 5.867188 -7.078125 7.167969 C -7.167969 7.964844 -6.96875 8.839844 -6.238281 9.75 C -5.085938 11.183594 -3.53125 11.472656 -2 10.417969 C -2.996094 11.398438 -2.867188 12.902344 -1.886719 14.117188 C -1.296875 14.855469 -0.578125 15.3125 0.246094 15.375 C 1.140625 15.449219 2.144531 15.082031 3.308594 14.144531 L 7.148438 11.058594 L -1.058594 0.851562 Z M 5.027344 10.9375 L 2.683594 12.820312 C 1.949219 13.410156 1.214844 13.757812 0.527344 13.695312 C 0.0546875 13.65625 -0.398438 13.425781 -0.804688 12.917969 C -1.65625 11.859375 -1.453125 10.683594 -0.25 9.71875 L 2.359375 7.621094 Z M 1.476562 6.523438 L -1.425781 8.855469 C -1.988281 9.308594 -3.554688 10.566406 -4.941406 8.839844 C -5.445312 8.210938 -5.578125 7.636719 -5.5 7.132812 C -5.355469 6.132812 -4.433594 5.390625 -4.03125 5.070312 L -1.394531 2.949219 Z M 1.476562 6.523438 "/></g></g></g><g fill="#000000" fill-opacity="1"><g transform="translate(221.942823, 243.884506)"><g><path d="M -6.347656 2.796875 C -10.109375 4.566406 -10.535156 8.257812 -9.015625 11.488281 C -7.496094 14.71875 -4.386719 16.730469 -0.628906 14.960938 C 3.101562 13.207031 3.535156 9.53125 2.015625 6.300781 C 0.496094 3.070312 -2.621094 1.042969 -6.347656 2.796875 Z M -5.742188 4.085938 C -3.117188 2.851562 -0.722656 4.191406 0.585938 6.972656 C 1.886719 9.738281 1.390625 12.4375 -1.234375 13.671875 C -3.90625 14.929688 -6.285156 13.582031 -7.585938 10.816406 C -8.894531 8.035156 -8.414062 5.34375 -5.742188 4.085938 Z M -5.742188 4.085938 "/></g></g></g><g fill="#000000" fill-opacity="1"><g transform="translate(206.692852, 250.670765)"><g><path d="M -6.847656 1.125 C -10.925781 1.902344 -12.261719 5.371094 -11.59375 8.878906 C -10.929688 12.386719 -8.417969 15.105469 -4.335938 14.332031 C -0.289062 13.5625 1.046875 10.109375 0.378906 6.601562 C -0.285156 3.09375 -2.796875 0.355469 -6.847656 1.125 Z M -6.578125 2.527344 C -3.730469 1.984375 -1.746094 3.878906 -1.171875 6.898438 C -0.601562 9.898438 -1.753906 12.390625 -4.601562 12.933594 C -7.503906 13.484375 -9.472656 11.585938 -10.042969 8.582031 C -10.617188 5.5625 -9.480469 3.078125 -6.578125 2.527344 Z M -6.578125 2.527344 "/></g></g></g><g fill="#000000" fill-opacity="1"><g transform="translate(190.123428, 253.30166)"><g><path d="M -2.933594 -0.125 L -3.207031 6.238281 L -8.609375 -0.367188 L -10.703125 -0.457031 L -4.871094 6.613281 L -10.953125 12.640625 L -8.929688 12.726562 L -3.238281 6.957031 L -3.492188 12.960938 L -1.914062 13.027344 L -1.355469 -0.0585938 Z M -2.933594 -0.125 "/></g></g></g><g fill="#000000" fill-opacity="1"><g transform="translate(176.131968, 252.181855)"><g/></g></g><g fill="#000000" fill-opacity="1"><g transform="translate(168.201525, 250.338672)"><g><path d="M -4.117188 0.910156 C -5.261719 0.488281 -6.53125 1.066406 -6.949219 2.210938 C -7.367188 3.355469 -6.769531 4.617188 -5.625 5.035156 C -4.496094 5.449219 -3.222656 4.871094 -2.804688 3.726562 C -2.386719 2.582031 -2.988281 1.320312 -4.117188 0.910156 Z M -4.117188 0.910156 "/></g></g></g><g fill="#000000" fill-opacity="1"><g transform="translate(158.492206, 246.453027)"><g/></g></g><g fill="#000000" fill-opacity="1"><g transform="translate(151.339661, 242.385448)"><g/></g></g><g clip-path="url(#9c5bae3b8e)"><path fill="#000000" d="M 237.898438 199.480469 C 237.125 200.148438 236.3125 200.769531 235.484375 201.371094 C 233.464844 202.777344 231.492188 204.320312 229.199219 205.308594 C 225.019531 207.054688 220.226562 206.988281 215.945312 205.636719 C 215.578125 189.679688 198.746094 190.941406 192.800781 175.214844 C 192.773438 175.171875 192.753906 175.125 192.738281 175.074219 C 193.351562 174.046875 193.75 172.859375 193.890625 171.613281 C 194.609375 167.175781 194.488281 162.414062 192.632812 158.261719 C 191.40625 155.628906 189.515625 153.128906 187.015625 151.605469 C 183.925781 149.960938 180.171875 150.742188 177.027344 151.859375 C 174.726562 152.878906 173.03125 155.078125 170.460938 155.53125 C 169.566406 155.746094 168.683594 155.691406 167.800781 155.632812 C 166.847656 155.574219 165.894531 155.511719 164.914062 155.789062 C 161.882812 156.691406 160.910156 160.417969 162.011719 163.136719 C 162.800781 165.230469 164.179688 167.089844 165.734375 168.679688 C 168.796875 171.703125 173.410156 172.949219 177.824219 173.273438 C 177.105469 174.15625 176.441406 175.089844 175.867188 176.070312 C 173.585938 179.929688 172.726562 184.480469 172.9375 188.925781 C 172.84375 193.867188 173.511719 200.796875 171.152344 205.191406 C 169.59375 207.238281 166.6875 207.035156 164.460938 207.839844 C 161.144531 208.585938 159.980469 212.617188 162.777344 214.746094 C 164.675781 216.265625 167.183594 216.199219 169.488281 215.992188 C 174.203125 215.613281 178.433594 213.046875 181.792969 209.828125 C 183.609375 212.550781 186.238281 214.742188 189.085938 216.320312 C 189.15625 216.355469 189.230469 216.371094 189.304688 216.371094 C 189.535156 216.371094 189.765625 216.222656 189.855469 216.007812 C 190.054688 215.507812 189.609375 215.273438 189.238281 215.035156 C 188.765625 214.707031 188.242188 214.304688 187.730469 213.894531 C 185.882812 212.421875 184.082031 210.824219 182.859375 208.773438 C 185.605469 205.847656 187.6875 202.105469 188.085938 198.0625 C 188.480469 194.816406 186.355469 189.429688 182.328125 191.550781 C 180.316406 192.734375 179.460938 195.113281 179.007812 197.289062 C 178.195312 201.035156 178.925781 205.074219 180.894531 208.351562 C 176.851562 212.425781 170.9375 215.414062 165.121094 214.09375 C 163.421875 213.660156 162.03125 211.632812 163.554688 210.199219 C 164.78125 209.25 166.4375 209.179688 167.894531 208.792969 C 172.320312 208.054688 173.671875 205.277344 174.273438 201.144531 C 175.292969 194.964844 174.074219 188.640625 175.175781 182.484375 C 175.660156 180.046875 176.582031 177.691406 177.984375 175.636719 C 178.28125 174.957031 179.507812 174.121094 179.316406 173.347656 C 180.148438 173.371094 180.960938 173.367188 181.75 173.335938 C 182.480469 175.820312 184.265625 178.46875 187.105469 178.511719 C 189.144531 178.429688 190.832031 177.488281 192.023438 176.074219 C 192.300781 177.019531 192.851562 177.945312 193.210938 178.808594 C 198.878906 191.511719 214.191406 191.398438 214.546875 205.160156 C 210.277344 203.617188 206.304688 201.226562 201.875 200.15625 C 199.917969 199.941406 197.808594 200.078125 196.101562 201.140625 C 194.0625 202.308594 191.996094 203.988281 191.71875 206.480469 C 191.28125 208.3125 191.796875 210.1875 192.394531 211.921875 C 193.769531 215.804688 197.449219 218.820312 201.617188 218.953125 C 201.78125 218.960938 201.941406 218.964844 202.105469 218.964844 C 204.480469 218.964844 206.78125 218.101562 208.859375 216.992188 C 212.585938 215.097656 215.464844 211.484375 215.875 207.246094 C 220.214844 208.496094 225.003906 208.460938 229.238281 206.832031 C 232.730469 205.332031 235.792969 202.945312 238.75 200.589844 C 239.480469 200.042969 238.59375 198.914062 237.894531 199.480469 Z M 180.695312 197.632812 C 181.128906 195.792969 181.792969 193.242188 183.917969 192.800781 C 185.679688 192.832031 186.167969 195.09375 186.328125 196.507812 C 186.527344 200.476562 184.652344 204.355469 182 207.222656 C 180.609375 204.265625 180.054688 200.855469 180.695312 197.628906 Z M 192.582031 168.269531 C 192.316406 171.929688 191.742188 176.070312 187.429688 176.789062 C 183.429688 176.664062 182.964844 171.359375 182.402344 168.316406 C 182.183594 167.480469 182.542969 165.785156 181.3125 165.785156 C 181.292969 165.785156 181.277344 165.785156 181.257812 165.785156 C 179.953125 166.042969 180.851562 168.117188 180.824219 169.042969 C 180.996094 170.214844 181.214844 171.386719 181.519531 172.53125 C 176.648438 172.324219 171.019531 171.546875 167.199219 168.269531 C 165.074219 166.171875 162.847656 163.460938 162.90625 160.316406 C 162.984375 158.832031 163.976562 157.308594 165.496094 157.023438 C 166.296875 156.921875 167.101562 156.96875 167.910156 157.015625 C 169.082031 157.085938 170.253906 157.152344 171.394531 156.761719 C 173.636719 156.199219 175.277344 154.488281 177.265625 153.425781 C 179.769531 152.394531 182.742188 151.820312 185.371094 152.6875 C 187.398438 153.488281 188.738281 155.265625 190.042969 156.949219 C 192.246094 160.261719 192.871094 164.355469 192.582031 168.265625 Z M 202.84375 217.167969 C 199.363281 217.4375 195.984375 215.339844 194.527344 212.1875 C 193.652344 210.261719 193.050781 208.058594 193.734375 205.988281 C 194.222656 204.589844 195.445312 203.671875 196.621094 202.871094 C 197.753906 202.050781 199.136719 201.71875 200.519531 201.71875 C 200.96875 201.71875 201.414062 201.753906 201.851562 201.820312 C 206.246094 202.980469 210.230469 205.320312 214.515625 206.808594 C 214.019531 212.699219 208.367188 216.601562 202.84375 217.167969 Z M 202.84375 217.167969 " fill-opacity="1" fill-rule="nonzero"/></g></svg>